<?xml version="1.0" encoding="utf-8"?>
<!-- Generator: Adobe Illustrator 26.0.0, SVG Export Plug-In . SVG Version: 6.00 Build 0)  -->
<svg version="1.0" id="Layer_1" xmlns="http://www.w3.org/2000/svg" xmlns:xlink="http://www.w3.org/1999/xlink" x="0px" y="0px"
	 viewBox="0 0 464 65" enable-background="new 0 0 464 65" xml:space="preserve">
<g>
	<g>
		<polygon fill="#F2F2F2" points="52.54,3.46 57.66,7.45 52.37,2.16 48.44,9.29 		"/>
		<polygon fill="#F2F2F2" points="57.75,18.59 64.88,14.67 59.59,9.38 63.58,14.5 		"/>
		<path fill="#F2F2F2" d="M64.76,27.43l1.03-11.42l-2.26,11.5l-0.61-0.61l2.32-11.87l-8.69,4.46l2.08-11.06L47.56,10.5l4.46-8.69
			L40.14,4.12l-0.61-0.61l11.5-2.26L39.61,2.28L38.8,1.04l-4.25,31.45L66,28.24L64.76,27.43z M57.84,20.02
			c0.63-0.42,6.69-4.16,6.69-4.16l-2.66,10.1c0,0-4.15-4.15-4.53-4.53C56.95,21.04,57.21,20.44,57.84,20.02z M55.94,17.83
			c-0.5,2.11-1.69,3.1-3.85,4.33c-1.83,1.04-11.42,6.29-14.33,7.88L57.89,9.86C57.89,9.86,56.44,15.73,55.94,17.83z M49.2,11.1
			c2.11-0.5,7.98-1.95,7.98-1.95L36.99,29.28c1.59-2.91,6.84-12.5,7.88-14.33C46.1,12.79,47.1,11.6,49.2,11.1z M51.18,2.51
			c0,0-3.75,6.06-4.16,6.69C46.6,9.83,46,10.09,45.61,9.71c-0.38-0.39-4.53-4.53-4.53-4.53L51.18,2.51z M40.01,6.17
			c0,0,2.64,2.56,3.67,3.58c1.03,1.03,1.7,2.22,0,5.39c-1.7,3.18-8.07,15.26-8.07,15.26L40.01,6.17z M36.63,31.43
			c0,0,12.08-6.37,15.26-8.07c3.18-1.7,4.37-1.03,5.39,0c1.03,1.03,3.58,3.67,3.58,3.67L36.63,31.43z"/>
	</g>
	<g>
		<polygon fill="#F2F2F2" points="5.53,14.5 9.52,9.38 4.22,14.67 11.36,18.59 		"/>
		<polygon fill="#F2F2F2" points="20.66,9.29 16.73,2.16 11.44,7.45 16.56,3.46 		"/>
		<path fill="#F2F2F2" d="M29.5,2.28L18.08,1.25l11.5,2.26l-0.61,0.61L17.09,1.81l4.46,8.69L10.48,8.41l2.08,11.06l-8.69-4.46
			L6.19,26.9l-0.61,0.61l-2.26-11.5l1.03,11.42L3.1,28.24l31.45,4.25L30.31,1.04L29.5,2.28z M22.09,9.2
			c-0.42-0.63-4.16-6.69-4.16-6.69l10.1,2.66c0,0-4.15,4.15-4.53,4.53C23.11,10.09,22.5,9.83,22.09,9.2z M19.9,11.1
			c2.11,0.5,3.1,1.69,4.33,3.85c1.04,1.83,6.29,11.42,7.88,14.33L11.92,9.15C11.92,9.15,17.79,10.59,19.9,11.1z M13.16,17.83
			c-0.5-2.11-1.95-7.98-1.95-7.98l20.13,20.19c-2.91-1.59-12.5-6.84-14.33-7.88C14.85,20.93,13.67,19.94,13.16,17.83z M4.58,15.86
			c0,0,6.06,3.75,6.69,4.16c0.63,0.41,0.89,1.02,0.51,1.41c-0.38,0.39-4.53,4.53-4.53,4.53L4.58,15.86z M8.24,27.02
			c0,0,2.55-2.64,3.58-3.67c1.03-1.03,2.22-1.7,5.39,0c3.18,1.7,15.26,8.07,15.26,8.07L8.24,27.02z M33.5,30.41
			c0,0-6.37-12.08-8.07-15.26c-1.7-3.18-1.03-4.37,0-5.39c1.03-1.03,3.67-3.58,3.67-3.58L33.5,30.41z"/>
	</g>
	<g>
		<polygon fill="#F2F2F2" points="16.56,61.51 11.44,57.52 16.73,62.81 20.66,55.68 		"/>
		<polygon fill="#F2F2F2" points="11.36,46.38 4.22,50.3 9.52,55.6 5.53,50.48 		"/>
		<path fill="#F2F2F2" d="M4.35,37.54L3.32,48.96l2.26-11.5l0.61,0.61L3.87,49.95l8.69-4.46l-2.08,11.06l11.06-2.08l-4.46,8.69
			l11.88-2.32l0.61,0.61l-11.5,2.26l11.42-1.03l0.81,1.24l4.25-31.45L3.1,36.73L4.35,37.54z M11.26,44.95
			c-0.63,0.42-6.69,4.16-6.69,4.16l2.66-10.1c0,0,4.15,4.15,4.53,4.53C12.16,43.93,11.89,44.54,11.26,44.95z M13.16,47.14
			c0.5-2.11,1.69-3.1,3.85-4.33c1.83-1.04,11.42-6.29,14.33-7.88L11.21,55.12C11.21,55.12,12.66,49.25,13.16,47.14z M19.9,53.88
			c-2.11,0.5-7.98,1.95-7.98,1.95l20.19-20.13c-1.59,2.91-6.84,12.5-7.88,14.33C23,52.19,22.01,53.37,19.9,53.88z M17.92,62.46
			c0,0,3.75-6.06,4.16-6.69c0.41-0.63,1.02-0.89,1.41-0.51c0.39,0.38,4.53,4.53,4.53,4.53L17.92,62.46z M29.09,58.8
			c0,0-2.64-2.55-3.67-3.58c-1.03-1.03-1.7-2.22,0-5.39c1.7-3.18,8.07-15.26,8.07-15.26L29.09,58.8z M32.47,33.54
			c0,0-12.08,6.37-15.26,8.07c-3.18,1.7-4.37,1.03-5.39,0c-1.03-1.03-3.58-3.67-3.58-3.67L32.47,33.54z"/>
	</g>
	<g>
		<polygon fill="#F2F2F2" points="63.58,50.48 59.59,55.6 64.88,50.3 57.75,46.38 		"/>
		<polygon fill="#F2F2F2" points="48.44,55.68 52.37,62.81 57.66,57.52 52.54,61.51 		"/>
		<path fill="#F2F2F2" d="M39.61,62.69l11.42,1.03l-11.5-2.26l0.61-0.61l11.88,2.32l-4.46-8.69l11.06,2.08l-2.08-11.06l8.69,4.46
			l-2.32-11.88l0.61-0.61l2.26,11.5l-1.03-11.42L66,36.73l-31.45-4.25l4.25,31.45L39.61,62.69z M47.02,55.77
			c0.42,0.63,4.16,6.69,4.16,6.69l-10.1-2.66c0,0,4.15-4.15,4.53-4.53C46,54.88,46.6,55.14,47.02,55.77z M49.2,53.88
			c-2.11-0.5-3.1-1.69-4.33-3.85c-1.04-1.83-6.29-11.42-7.88-14.33l20.19,20.13C57.18,55.82,51.31,54.38,49.2,53.88z M55.94,47.14
			c0.5,2.11,1.95,7.98,1.95,7.98L37.76,34.93c2.91,1.59,12.5,6.84,14.33,7.88C54.25,44.04,55.44,45.03,55.94,47.14z M64.53,49.12
			c0,0-6.06-3.75-6.69-4.16c-0.63-0.41-0.89-1.02-0.51-1.41c0.38-0.39,4.53-4.53,4.53-4.53L64.53,49.12z M60.87,37.95
			c0,0-2.55,2.64-3.58,3.67c-1.03,1.03-2.22,1.7-5.39,0c-3.18-1.7-15.26-8.07-15.26-8.07L60.87,37.95z M35.61,34.57
			c0,0,6.37,12.08,8.07,15.26c1.7,3.18,1.03,4.37,0,5.39c-1.03,1.03-3.67,3.58-3.67,3.58L35.61,34.57z"/>
	</g>
</g>
<g>
	<g>
		<polygon fill="#F2F2F2" points="131.55,14 124.88,14 118.98,22.79 123.03,28.33 		"/>
		<polygon fill="#F2F2F2" points="113.93,25.44 113.93,14 108.74,14 108.74,52.44 113.93,52.44 113.93,34.05 126.93,52.44 
			133.27,52.44 126.16,42.27 		"/>
		<path fill="#F2F2F2" d="M300.58,37.38c0,2.72-0.99,5.07-2.93,6.99c-1.94,1.92-4.28,2.89-6.95,2.89c-2.72,0-5.07-0.97-6.99-2.89
			c-1.92-1.92-2.89-4.27-2.89-6.99V14h-5.18v23.38c0,4.2,1.44,7.68,4.41,10.65c2.97,2.97,6.45,4.41,10.65,4.41
			c4.2,0,7.68-1.44,10.65-4.41c2.97-2.97,4.41-6.45,4.41-10.65V14h-5.18V37.38z"/>
		<path fill="#F2F2F2" d="M456.6,14v23.38c0,2.72-0.99,5.07-2.93,6.99c-1.93,1.91-4.28,2.88-6.99,2.89v5.18
			c4.19,0,7.68-1.45,10.66-4.41c2.99-2.97,4.44-6.45,4.44-10.65V14H456.6z"/>
		<path fill="#F2F2F2" d="M246.39,34.42c1.58-2.22,2.35-4.66,2.35-7.44c0-3.6-1.25-6.6-3.82-9.17c-2.31-2.3-4.96-3.55-8.08-3.78l0,0
			h-23.13l3.7,5.21h19.43v0c1.67,0.22,3.15,0.97,4.41,2.23c1.53,1.53,2.3,3.38,2.3,5.5c0,2.13-0.77,3.98-2.3,5.5
			c-1.53,1.53-3.38,2.3-5.5,2.3h-7.13l12.34,17.65h6.33l-8.82-12.61l1.89-0.71C242.83,38.19,244.8,36.66,246.39,34.42z"/>
		<polygon fill="#F2F2F2" points="189.19,39.46 178.74,16.23 168.3,39.46 166,44.56 162.46,52.44 167.88,52.44 170.71,46.19 
			176.8,46.19 173.75,39.46 173.75,39.46 178.74,28.4 183.74,39.46 186.79,46.19 189.61,52.44 195.03,52.44 190.63,42.66 		"/>
		<polygon fill="#F2F2F2" points="355.45,14 348.78,14 342.89,22.79 346.94,28.33 		"/>
		<polygon fill="#F2F2F2" points="337.83,25.44 337.83,14 332.65,14 332.65,52.44 337.83,52.44 337.83,34.05 350.84,52.44 
			357.18,52.44 350.06,42.27 		"/>
		<polygon fill="#F2F2F2" points="413.1,39.46 402.65,16.23 392.2,39.46 389.91,44.57 386.36,52.44 391.79,52.44 394.61,46.19 
			400.7,46.19 397.66,39.46 397.65,39.46 402.65,28.4 407.65,39.46 410.69,46.19 413.52,52.44 418.94,52.44 414.54,42.66 		"/>
	</g>
	<g>
		<path d="M195.85,218.32c-1.95,2.17-4.07,3.79-6.37,4.87c-2.3,1.09-4.78,1.63-7.45,1.63c-4.92,0-8.83-1.66-11.72-4.99
			c-2.34-2.71-3.51-5.74-3.51-9.09c0-2.98,0.96-5.66,2.87-8.06c1.91-2.39,4.77-4.5,8.58-6.32c-2.16-2.49-3.61-4.51-4.33-6.07
			c-0.72-1.55-1.08-3.05-1.08-4.49c0-2.89,1.13-5.4,3.4-7.53c2.26-2.13,5.11-3.2,8.55-3.2c3.28,0,5.96,1.01,8.05,3.02
			c2.09,2.01,3.13,4.43,3.13,7.25c0,4.58-3.03,8.48-9.09,11.71l8.63,11c0.98-1.93,1.75-4.15,2.29-6.69l6.14,1.31
			c-1.05,4.2-2.47,7.66-4.26,10.37c2.21,2.93,4.71,5.39,7.51,7.38l-3.97,4.69C200.85,223.58,198.39,221.32,195.85,218.32z
			 M192.14,213.66l-10.83-13.42c-3.19,1.9-5.35,3.67-6.46,5.3c-1.11,1.63-1.67,3.24-1.67,4.84c0,1.95,0.77,3.97,2.33,6.07
			c1.55,2.1,3.75,3.15,6.6,3.15c1.77,0,3.6-0.56,5.49-1.66C189.49,216.84,191,215.41,192.14,213.66z M183.84,193.25
			c2.56-1.51,4.22-2.83,4.97-3.97c0.75-1.14,1.13-2.39,1.13-3.77c0-1.64-0.52-2.98-1.56-4.02c-1.04-1.04-2.33-1.56-3.89-1.56
			c-1.59,0-2.92,0.51-3.99,1.54c-1.06,1.03-1.59,2.29-1.59,3.77c0,0.74,0.19,1.53,0.57,2.35c0.38,0.82,0.96,1.69,1.72,2.61
			L183.84,193.25z"/>
		<g>
			<g>
				<path d="M-254.17,225.12v-50.23h8.79c6.95,0,12.75,2.42,17.72,7.39c4.98,4.98,7.4,10.77,7.4,17.72c0,7-2.42,12.81-7.39,17.76
					c-4.98,4.95-10.77,7.36-17.73,7.36H-254.17z M-247.48,218.41h2.09c5.06,0,9.45-1.81,13.03-5.4c3.58-3.58,5.39-7.96,5.39-13.02
					c0-5.01-1.81-9.38-5.39-12.98c-3.58-3.61-7.97-5.44-13.03-5.44h-2.09V218.41z"/>
				<polygon points="-184.98,225.12 -184.98,174.88 -157.51,174.88 -160.19,181.57 -178.28,181.57 -178.28,196.65 -162.95,196.65 
					-165.63,203.35 -178.28,203.35 -178.28,218.41 -157.51,218.41 -160.19,225.12 				"/>
				<path d="M-106.99,225.12c-3.97,0-7.26-1.37-10.07-4.18c-2.3-2.29-3.63-4.91-4.04-7.96h6.84c0.34,1.21,0.98,2.29,1.93,3.24
					c1.46,1.45,3.25,2.2,5.33,2.2c2.07,0,3.86-0.75,5.33-2.21c1.46-1.46,2.2-3.25,2.2-5.32c0-3.12-1.43-5.42-4.04-6.46
					c-1.99-0.7-3.22-1.14-3.79-1.35c-0.59-0.22-1.59-0.56-3.01-1.02c-1.46-0.51-3.07-1.34-4.75-2.45c-1.62-1.07-3.1-2.52-4.4-4.31
					c-1.18-1.62-1.77-3.7-1.77-6.19c0-3.96,1.36-7.25,4.17-10.06c2.8-2.81,6.1-4.17,10.07-4.17c3.97,0,7.26,1.36,10.07,4.17
					c2.29,2.29,3.62,4.92,4.03,7.96h-6.84c-0.34-1.2-0.98-2.29-1.92-3.23c-1.47-1.47-3.26-2.21-5.33-2.21
					c-2.07,0-3.87,0.75-5.33,2.21c-1.46,1.46-2.21,3.25-2.21,5.32c0,2.63,1.16,4.77,3.33,6.16c1.82,1.16,3.13,1.82,4.13,2.08
					c0.24,0.11,1.33,0.45,3.1,0.96c1.51,0.44,3.15,1.19,4.87,2.23c1.66,1,3.18,2.38,4.52,4.11c1.22,1.59,1.82,3.61,1.82,6.23
					c0,3.97-1.36,7.26-4.17,10.05C-99.73,223.74-103.03,225.12-106.99,225.12z"/>
				<rect x="-57.48" y="174.88" width="6.7" height="50.23"/>
				<path d="M9.62,225.12c-7,0-12.81-2.41-17.76-7.36C-13.09,212.8-15.5,207-15.5,200c0-6.95,2.4-12.76,7.36-17.72
					c4.95-4.97,10.76-7.39,17.76-7.39c3.43,0,6.69,0.66,9.7,1.96c2.38,1.03,4.57,2.35,6.54,3.96l-4.75,4.79
					c-3.32-2.67-7.18-4.03-11.49-4.03c-5.06,0-9.45,1.84-13.03,5.44c-3.58,3.6-5.39,7.97-5.39,12.98c0,5.06,1.81,9.44,5.39,13.02
					c3.58,3.58,7.96,5.4,13.03,5.4c3.97,0,7.57-1.16,10.72-3.47c3.12-2.29,5.36-5.24,6.64-8.8l1.01-2.79H11.71v-6.7h22.81
					c0.14,1.07,0.21,2.19,0.21,3.35c0,7-2.42,12.81-7.39,17.76C22.37,222.71,16.57,225.12,9.62,225.12z"/>
				<path d="M70.02,225.12v-47.59l22.62,20.59l16.73,15.33v9.02l-32.65-29.77v32.43H70.02z M102.68,191.46v-16.58h6.7v22.8
					L102.68,191.46z"/>
			</g>
			<g>
				<polygon points="269.72,225.12 269.72,181.57 257.12,181.57 259.8,174.88 293.44,174.88 290.71,181.57 276.42,181.57 
					276.42,225.12 				"/>
				<polygon points="329.74,225.12 329.74,174.88 357.21,174.88 354.53,181.57 336.44,181.57 336.44,196.65 351.77,196.65 
					349.09,203.35 336.44,203.35 336.44,218.41 357.21,218.41 354.53,225.12 				"/>
				<path d="M418.61,225.12c-7,0-12.81-2.41-17.76-7.36c-4.95-4.96-7.36-10.76-7.36-17.76c0-6.95,2.41-12.76,7.36-17.72
					c4.95-4.97,10.76-7.39,17.76-7.39c3.43,0,6.69,0.66,9.7,1.96c2.38,1.03,4.57,2.35,6.53,3.96l-4.74,4.79
					c-3.33-2.67-7.18-4.03-11.49-4.03c-5.06,0-9.45,1.84-13.03,5.44c-3.58,3.6-5.39,7.97-5.39,12.98c0,5.06,1.81,9.44,5.4,13.02
					c3.58,3.58,7.96,5.4,13.02,5.4c4.36,0,8.22-1.35,11.51-4.02l4.74,4.74c-1.97,1.64-4.16,2.99-6.54,4.01
					C425.3,224.46,422.03,225.12,418.61,225.12z"/>
				<polygon points="498.29,225.12 498.29,203.35 477.78,203.35 477.78,225.12 471.08,225.12 471.08,174.88 477.78,174.88 
					477.78,196.65 498.29,196.65 498.29,174.88 504.99,174.88 504.99,225.12 				"/>
				<path d="M540.28,225.12v-47.59l22.62,20.59l16.73,15.33v9.02l-32.66-29.77v32.43H540.28z M572.93,191.46v-16.58h6.7v22.8
					L572.93,191.46z"/>
				<path d="M640.03,225.12c-7,0-12.81-2.41-17.76-7.36c-4.95-4.96-7.36-10.76-7.36-17.76c0-6.95,2.41-12.76,7.36-17.72
					c4.95-4.97,10.75-7.39,17.76-7.39c6.95,0,12.75,2.42,17.72,7.39c4.98,4.98,7.39,10.77,7.39,17.72c0,7-2.42,12.81-7.39,17.76
					C652.78,222.71,646.98,225.12,640.03,225.12z M640.03,181.57c-5.06,0-9.45,1.84-13.03,5.44c-3.58,3.6-5.39,7.97-5.39,12.98
					c0,5.06,1.81,9.44,5.39,13.02c3.58,3.58,7.96,5.4,13.02,5.4c5,0,9.37-1.81,12.98-5.38c3.61-3.59,5.44-7.96,5.44-13.04
					c0-5.01-1.83-9.38-5.44-13C649.4,183.39,645.04,181.57,640.03,181.57z"/>
				<polygon points="700.43,225.12 700.43,174.88 707.13,174.88 707.13,218.41 728.9,218.41 728.9,225.12 				"/>
				<path d="M789.3,225.12c-7,0-12.81-2.41-17.76-7.36c-4.95-4.96-7.35-10.76-7.35-17.76c0-6.95,2.4-12.76,7.36-17.72
					c4.95-4.97,10.75-7.39,17.76-7.39c6.95,0,12.75,2.42,17.72,7.39c4.98,4.98,7.4,10.77,7.4,17.72c0,7-2.42,12.81-7.4,17.76
					C802.05,222.71,796.25,225.12,789.3,225.12z M789.3,181.57c-5.06,0-9.45,1.84-13.03,5.44c-3.58,3.6-5.39,7.97-5.39,12.98
					c0,5.06,1.81,9.44,5.39,13.02c3.58,3.58,7.96,5.4,13.02,5.4c5.01,0,9.37-1.81,12.98-5.38c3.61-3.59,5.44-7.96,5.44-13.04
					c0-5.01-1.83-9.38-5.44-13C798.68,183.39,794.31,181.57,789.3,181.57z"/>
				<path d="M874.82,225.12c-7,0-12.81-2.41-17.76-7.36c-4.95-4.96-7.36-10.76-7.36-17.76c0-6.95,2.41-12.76,7.36-17.72
					c4.95-4.97,10.76-7.39,17.76-7.39c3.43,0,6.69,0.66,9.7,1.96c2.38,1.03,4.56,2.35,6.53,3.96l-4.74,4.79
					c-3.32-2.67-7.18-4.03-11.49-4.03c-5.06,0-9.46,1.84-13.04,5.44c-3.57,3.6-5.38,7.97-5.38,12.98c0,5.06,1.81,9.44,5.39,13.02
					c3.58,3.58,7.96,5.4,13.03,5.4c3.97,0,7.57-1.16,10.72-3.47c3.13-2.29,5.36-5.24,6.65-8.8l1.02-2.79h-16.29v-6.7h22.81
					c0.15,1.07,0.21,2.19,0.21,3.35c0,7-2.42,12.81-7.39,17.76C887.57,222.71,881.77,225.12,874.82,225.12z"/>
				<path d="M951.55,225.12v-22.85l-14.9-27.38h7.6l4.53,8.31l9.46,17.57v24.36H951.55z M961.55,182.2l3.93-7.32h7.47l-8.14,13.48
					L961.55,182.2z"/>
			</g>
		</g>
	</g>
</g>
<g>
</g>
<g>
</g>
<g>
</g>
<g>
</g>
<g>
</g>
<g>
</g>
<g>
</g>
<g>
</g>
<g>
</g>
<g>
</g>
<g>
</g>
</svg>
