<svg width="765" height="255" viewBox="0 0 765 255" fill="none" xmlns="http://www.w3.org/2000/svg">
<g clip-path="url(#clip0)">
<path d="M447.46 182.74L427.62 148.38L387.94 148.37L407.78 182.74H447.46Z" fill="#F0005A"/>
<path d="M411.9 217.1H451.58L471.42 182.74H431.74L411.9 217.1Z" fill="#FA5F00"/>
<path d="M373.87 150.67H373.44L373.66 151.05L374.12 151.84L374.19 151.96H374.33H414.01H414.44L414.22 151.58L413.76 150.79L413.69 150.67H413.55H373.87ZM376.62 155.42H376.19L376.41 155.79L376.87 156.58L376.94 156.71H377.08H416.76H417.19L416.97 156.34L416.52 155.55L416.45 155.42H416.31H376.62ZM378.92 160.16L379.14 160.54L379.6 161.33L379.67 161.46H379.81H419.49H419.92L419.7 161.08L419.24 160.29L419.17 160.17H419.03H379.35H378.92V160.16ZM381.67 164.91L381.89 165.28L382.34 166.07L382.41 166.2H382.55H422.23H422.66L422.44 165.83L421.99 165.04L421.92 164.91H421.78H382.1H381.67ZM384.41 169.66L384.63 170.03L385.09 170.82L385.16 170.95H385.3H424.98H425.41L425.19 170.58L424.74 169.79L424.67 169.66H424.53H384.85H384.41ZM387.58 174.41H387.15L387.37 174.78L387.83 175.57L387.9 175.7H388.04H427.72H428.15L427.93 175.33L427.47 174.54L427.4 174.41H427.26H387.58ZM389.89 179.16L390.11 179.54L390.57 180.33L390.64 180.45H390.78H430.46H430.89L430.67 180.08L430.22 179.29L430.15 179.16H430.01H390.33H389.89Z" fill="white"/>
<path d="M407.79 182.74H407.36H367.68H367.54L367.47 182.86L367.01 183.65L366.79 184.03H367.22H406.9H407.04L407.11 183.9L407.56 183.11L407.79 182.74ZM405.05 187.48H404.62H364.94H364.8L364.73 187.61L364.27 188.4L364.05 188.78H364.48H404.16H404.3L404.37 188.66L404.83 187.87L405.05 187.48ZM362.19 192.23H362.05L361.98 192.35L361.52 193.14L361.3 193.52H361.73H401.41H401.55L401.62 193.4L402.08 192.61L402.3 192.23H401.87H362.19ZM399.56 196.98H399.13H359.45H359.31L359.24 197.1L358.78 197.89L358.56 198.27H358.99H398.67H398.81L398.88 198.15L399.34 197.36L399.56 196.98Z" fill="#0078BE"/>
<path d="M149.64 220.37L129.8 186.01L90.12 186L109.96 220.37H149.64Z" fill="#0078BE"/>
<path d="M103.31 254.73H142.99L162.83 220.37H123.15L103.31 254.73Z" fill="#FA5F00"/>
<path d="M76.05 188.3H75.62L75.84 188.68L76.3 189.47L76.37 189.59H76.51H116.19H116.62L116.4 189.21L115.94 188.42L115.87 188.3H115.73H76.05ZM78.79 193.05H78.36L78.58 193.42L79.04 194.21L79.11 194.34H79.25H118.93H119.36L119.14 193.97L118.69 193.18L118.62 193.05H118.48H78.79ZM81.1 197.79L81.32 198.17L81.78 198.96L81.85 199.09H81.99H121.67H122.1L121.88 198.71L121.42 197.92L121.35 197.8H121.21H81.53H81.1V197.79ZM83.84 202.54L84.06 202.91L84.51 203.7L84.58 203.83H84.72H124.4H124.83L124.61 203.46L124.16 202.67L124.09 202.54H123.95H84.27H83.84ZM86.58 207.29L86.8 207.66L87.26 208.45L87.33 208.58H87.47H127.15H127.58L127.36 208.21L126.91 207.42L126.84 207.29H126.7H87.02H86.58ZM89.76 212.04H89.33L89.55 212.41L90.01 213.2L90.08 213.33H90.22H129.9H130.33L130.11 212.96L129.65 212.17L129.58 212.04H129.44H89.76ZM92.07 216.79L92.29 217.17L92.75 217.96L92.82 218.08H92.96H132.64H133.07L132.85 217.71L132.4 216.92L132.33 216.79H132.19H92.51H92.07Z" fill="white"/>
<path d="M109.96 220.37H109.53H69.85H69.71L69.64 220.49L69.18 221.28L68.96 221.66H69.39H109.07H109.21L109.28 221.53L109.73 220.74L109.96 220.37ZM107.22 225.11H106.79H67.11H66.97L66.9 225.24L66.44 226.03L66.22 226.41H66.65H106.33H106.47L106.54 226.29L107 225.5L107.22 225.11ZM64.37 229.86H64.23L64.16 229.98L63.7 230.77L63.48 231.15H63.91H103.59H103.73L103.8 231.03L104.26 230.24L104.48 229.86H104.05H64.37ZM101.74 234.61H101.31H61.63H61.49L61.42 234.73L60.96 235.52L60.74 235.9H61.17H100.85H100.99L101.06 235.78L101.52 234.99L101.74 234.61Z" fill="#F0005A"/>
<path d="M160.64 110.27H200.31L220.15 144.64H180.47L160.64 110.27Z" fill="#0078BE"/>
<path d="M220.15 144.64L200.31 179H160.64L180.47 144.63L220.15 144.64Z" fill="#F0005A"/>
<path d="M176.13 176.71H215.81H215.95L216.02 176.59L216.48 175.8L216.7 175.42H216.27H176.59H176.45L176.38 175.54L175.92 176.33L175.7 176.71H176.13ZM178.87 171.96H218.55H218.69L218.76 171.83L219.21 171.04L219.43 170.67H219H179.32H179.18L179.11 170.8L178.65 171.59L178.43 171.96H178.87ZM181.18 167.21H181.61H221.29H221.43L221.5 167.09L221.96 166.3L222.18 165.92H221.75H182.07H181.93L181.86 166.05L181.4 166.84L181.18 167.21ZM183.92 162.46H184.35H224.03H224.17L224.24 162.33L224.69 161.54L224.91 161.17H224.48H184.8H184.66L184.59 161.3L184.14 162.09L183.92 162.46ZM186.66 157.71H187.09H226.77H226.91L226.98 157.58L227.43 156.79L227.65 156.42H227.22H187.54H187.4L187.33 156.55L186.87 157.34L186.66 157.71ZM189.83 152.96H229.51H229.65L229.72 152.83L230.18 152.04L230.4 151.67H229.97H190.29H190.15L190.08 151.8L189.62 152.59L189.4 152.96H189.83ZM192.14 148.22H192.57H232.25H232.39L232.46 148.09L232.91 147.3L233.13 146.93H232.7H193.02H192.88L192.81 147.05L192.35 147.84L192.14 148.22Z" fill="#122959"/>
<path d="M333.15 235.82L341.99 220.57H381.67L372.83 235.82H333.15Z" fill="#0078BE"/>
<path d="M363.85 215.83H363.42H323.74H323.6L323.53 215.95L323.07 216.74L322.85 217.12H323.28H362.96H363.1L363.17 216.99L363.63 216.2L363.85 215.83ZM361.11 220.58H360.68H321H320.86L320.79 220.71L320.33 221.5L320.11 221.88H320.54H360.22H360.36L360.43 221.76L360.89 220.97L361.11 220.58ZM318.26 225.33H318.12L318.05 225.45L317.59 226.24L317.37 226.62H317.8H357.48H357.62L357.69 226.5L358.15 225.71L358.37 225.33H357.94H318.26ZM355.63 230.08H355.2H315.52H315.38L315.31 230.2L314.85 230.99L314.63 231.37H315.06H354.74H354.88L354.95 231.25L355.41 230.46L355.63 230.08Z" fill="#FA5F00"/>
<path d="M160.69 209.29L169.53 194.04H209.21L200.37 209.29H160.69Z" fill="#0078BE"/>
<path d="M188.66 196.27H188.23H148.55H148.41L148.34 196.4L147.88 197.19L147.66 197.57H148.09H187.77H187.91L187.98 197.45L188.44 196.66L188.66 196.27ZM145.81 201.02H145.67L145.6 201.14L145.14 201.93L144.92 202.31H145.35H185.03H185.17L185.24 202.19L185.7 201.4L185.92 201.02H185.49H145.81ZM183.18 205.77H182.75H143.07H142.93L142.86 205.89L142.4 206.68L142.18 207.06H142.61H182.29H182.43L182.5 206.94L182.96 206.15L183.18 205.77Z" fill="white"/>
<path d="M35.07 102.51H34.64H-5.04003H-5.18003L-5.25002 102.63L-5.71002 103.42L-5.93003 103.8H-5.50002H34.18H34.32L34.39 103.67L34.85 102.88L35.07 102.51ZM32.33 107.25H31.9H-7.78002H-7.92002L-7.99003 107.38L-8.45003 108.17L-8.67002 108.55H-8.24003H31.44H31.58L31.65 108.43L32.11 107.64L32.33 107.25ZM-10.53 112H-10.67L-10.74 112.12L-11.2 112.91L-11.42 113.29H-10.99H28.69H28.83L28.9 113.17L29.36 112.38L29.58 112H29.15H-10.53ZM26.85 116.75H26.42H-13.26H-13.4L-13.47 116.87L-13.93 117.66L-14.15 118.04H-13.72H25.96H26.1L26.17 117.92L26.63 117.13L26.85 116.75Z" fill="#122959"/>
<path d="M28.49 184.77L8.64997 150.41H-31.03L-11.19 184.77H28.49Z" fill="#F0005A"/>
<path d="M-31.03 219.13H8.64997L28.49 184.77H-11.19L-31.03 219.13Z" fill="#0078BE"/>
<path d="M48.11 187.06H47.68H7.99997H7.85997L7.78997 187.18L7.32998 187.97L7.10997 188.35H7.53997H47.22H47.36L47.43 188.23L47.89 187.44L48.11 187.06ZM45.37 191.81H44.94H5.25997H5.11997L5.04997 191.94L4.58997 192.73L4.36997 193.1H4.79997H44.48H44.62L44.69 192.97L45.15 192.18L45.37 191.81ZM42.63 196.56H42.2H2.51997H2.37997L2.30997 196.69L1.84997 197.48L1.62997 197.85H2.05997H41.74H41.88L41.95 197.72L42.4 196.93L42.63 196.56ZM39.89 201.31H39.46H-0.220028H-0.360027L-0.430027 201.43L-0.890026 202.22L-1.11003 202.6H-0.680027H39H39.14L39.21 202.47L39.66 201.68L39.89 201.31ZM37.15 206.06H36.72H-2.96003H-3.10003L-3.17002 206.19L-3.63003 206.98L-3.85003 207.36H-3.42002H36.26H36.4L36.47 207.24L36.93 206.45L37.15 206.06ZM-5.71003 210.81H-5.85003L-5.92002 210.93L-6.38003 211.72L-6.60003 212.1H-6.17002H33.51H33.65L33.72 211.97L34.17 211.18L34.39 210.81H33.96H-5.71003ZM31.66 215.55H31.23H-8.45003H-8.59003L-8.66003 215.67L-9.12003 216.46L-9.34003 216.84H-8.91003H30.77H30.91L30.98 216.72L31.44 215.93L31.66 215.55Z" fill="#122959"/>
<path d="M81.1099 34.53L61.2699 68.89H21.5999L41.4299 34.53H81.1099Z" fill="#F0005A"/>
<path d="M17.5999 68.89L37.2199 34.9L37.4399 34.53H36.9999H36.0899H35.9499L35.8799 34.65L16.1099 68.89H17.5999Z" fill="#F0005A"/>
<path d="M23.08 68.89L42.7 34.9L42.92 34.53H42.49H41.58H41.43L41.36 34.65L21.59 68.89H23.08Z" fill="#F0005A"/>
<path d="M12.1099 68.89L31.7399 34.9L31.9599 34.53H31.5199H30.6099H30.4699L30.3899 34.65L10.6299 68.89H12.1099Z" fill="#F0005A"/>
<path d="M1.14991 68.89L20.7699 34.9L20.9899 34.53H20.5599H19.6499H19.4999L19.4299 34.65L-0.340088 68.89H1.14991Z" fill="#F0005A"/>
<path d="M-4.33007 68.89L15.2899 34.9L15.5099 34.53H15.0699H14.1599H14.0199L13.9499 34.65L-5.82007 68.89H-4.33007Z" fill="#F0005A"/>
<path d="M-9.82006 68.89L9.80994 34.9L10.0199 34.53H9.58994H8.67994H8.53994L8.45994 34.65L-11.3101 68.89H-9.82006Z" fill="#F0005A"/>
<path d="M6.62996 68.89L26.26 34.9L26.47 34.53H26.04H25.13H24.98L24.91 34.65L5.13995 68.89H6.62996Z" fill="#F0005A"/>
<path d="M21.5999 0.169983H61.2699L81.1099 34.53H41.4299L21.5999 0.169983Z" fill="#122959"/>
<path d="M670.06 212.1L650.22 246.46H610.54L630.38 212.1H670.06Z" fill="#FA5F00"/>
<path d="M606.55 246.46L626.17 212.47L626.39 212.1H625.95H625.04H624.9L624.83 212.22L605.06 246.46H606.55Z" fill="#FA5F00"/>
<path d="M612.03 246.46L631.65 212.47L631.87 212.1H631.44H630.53H630.38L630.31 212.22L610.54 246.46H612.03Z" fill="#FA5F00"/>
<path d="M601.06 246.46L620.69 212.47L620.9 212.1H620.47H619.56H619.42L619.34 212.22L599.57 246.46H601.06Z" fill="#FA5F00"/>
<path d="M590.1 246.46L609.72 212.47L609.94 212.1H609.5H608.59H608.45L608.38 212.22L588.61 246.46H590.1Z" fill="#FA5F00"/>
<path d="M584.61 246.46L604.24 212.47L604.45 212.1H604.02H603.11H602.97L602.9 212.22L583.13 246.46H584.61Z" fill="#FA5F00"/>
<path d="M579.13 246.46L598.76 212.47L598.97 212.1H598.54H597.63H597.48L597.41 212.22L577.64 246.46H579.13Z" fill="#FA5F00"/>
<path d="M595.58 246.46L615.2 212.47L615.42 212.1H614.99H614.08H613.93L613.86 212.22L594.09 246.46H595.58Z" fill="#FA5F00"/>
<path d="M610.54 177.73H650.22L670.06 212.1H630.38L610.54 177.73Z" fill="#455478"/>
<path d="M764.88 159.81L745.04 125.45H705.36L725.2 159.81H764.88Z" fill="#455478"/>
<path d="M705.36 194.17H745.04L764.88 159.81H725.2L705.36 194.17Z" fill="#F0005A"/>
<path d="M691.29 127.74H690.86L691.08 128.12L691.54 128.91L691.61 129.03H691.75H731.43H731.86L731.64 128.65L731.18 127.86L731.11 127.74H730.97H691.29ZM694.03 132.49H693.6L693.82 132.86L694.28 133.65L694.35 133.78H694.49H734.17H734.6L734.38 133.41L733.93 132.62L733.86 132.49H733.72H694.03ZM696.34 137.23L696.56 137.61L697.02 138.4L697.09 138.53H697.23H736.91H737.34L737.12 138.15L736.66 137.36L736.59 137.24H736.45H696.77H696.34V137.23ZM699.08 141.98L699.3 142.35L699.75 143.14L699.82 143.27H699.96H739.64H740.07L739.85 142.9L739.4 142.11L739.33 141.98H739.19H699.51H699.08ZM701.82 146.73L702.04 147.1L702.5 147.89L702.57 148.02H702.71H742.39H742.82L742.6 147.65L742.15 146.86L742.08 146.73H741.94H702.26H701.82ZM705 151.48H704.57L704.79 151.85L705.25 152.64L705.32 152.77H705.46H745.14H745.57L745.35 152.4L744.89 151.61L744.82 151.48H744.68H705ZM707.31 156.23L707.53 156.61L707.99 157.4L708.06 157.52H708.2H747.88H748.31L748.09 157.15L747.64 156.36L747.57 156.23H747.43H707.75H707.31Z" fill="white"/>
<path d="M725.2 159.81H724.77H685.09H684.95L684.88 159.93L684.42 160.72L684.2 161.1H684.63H724.31H724.45L724.52 160.97L724.97 160.18L725.2 159.81ZM722.46 164.56H722.03H682.35H682.21L682.14 164.69L681.68 165.48L681.46 165.86H681.89H721.57H721.71L721.78 165.74L722.24 164.95L722.46 164.56ZM679.61 169.31H679.47L679.4 169.43L678.94 170.22L678.72 170.6H679.15H718.83H718.97L719.04 170.48L719.5 169.69L719.72 169.31H719.29H679.61ZM716.98 174.05H716.55H676.87H676.73L676.66 174.17L676.2 174.96L675.98 175.34H676.41H716.09H716.23L716.3 175.22L716.76 174.43L716.98 174.05Z" fill="#F0005A"/>
<path d="M300.13 206.54L280.29 172.18H240.61L260.45 206.54H300.13Z" fill="#122959"/>
<path d="M240.61 240.9H280.29L300.13 206.54H260.45L240.61 240.9Z" fill="#F0005A"/>
<path d="M226.54 174.47H226.11L226.33 174.85L226.79 175.64L226.86 175.76H227H266.68H267.11L266.89 175.38L266.43 174.59L266.36 174.47H266.22H226.54ZM229.28 179.22H228.85L229.07 179.59L229.53 180.38L229.6 180.51H229.74H269.42H269.85L269.63 180.14L269.18 179.35L269.11 179.22H268.97H229.28ZM231.59 183.97L231.81 184.35L232.27 185.14L232.34 185.27H232.48H272.16H272.59L272.37 184.89L271.91 184.1L271.84 183.98H271.7H232.02H231.59V183.97ZM234.33 188.72L234.55 189.09L235 189.88L235.07 190.01H235.21H274.89H275.32L275.1 189.64L274.65 188.85L274.58 188.72H274.44H234.76H234.33ZM237.08 193.46L237.3 193.83L237.76 194.62L237.83 194.75H237.97H277.65H278.08L277.86 194.38L277.41 193.59L277.34 193.46H277.2H237.52H237.08ZM240.25 198.21H239.82L240.04 198.58L240.5 199.37L240.57 199.5H240.71H280.39H280.82L280.6 199.13L280.14 198.34L280.07 198.21H279.93H240.25ZM242.56 202.96L242.78 203.34L243.24 204.13L243.31 204.25H243.45H283.13H283.56L283.34 203.88L282.89 203.09L282.82 202.96H282.68H243H242.56Z" fill="white"/>
<path d="M260.46 206.54H260.03H220.35H220.21L220.14 206.66L219.68 207.45L219.46 207.83H219.89H259.57H259.71L259.78 207.7L260.23 206.91L260.46 206.54ZM257.71 211.29H257.28H217.6H217.46L217.39 211.42L216.93 212.21L216.71 212.59H217.14H256.82H256.96L257.03 212.47L257.49 211.68L257.71 211.29ZM214.86 216.04H214.72L214.65 216.16L214.19 216.95L213.97 217.33H214.4H254.08H254.22L254.29 217.21L254.75 216.42L254.97 216.04H254.54H214.86ZM252.23 220.79H251.8H212.12H211.98L211.91 220.91L211.45 221.7L211.23 222.08H211.66H251.34H251.48L251.55 221.96L252.01 221.17L252.23 220.79Z" fill="#F0005A"/>
<path d="M480.78 216.91L489.62 201.66H529.3L520.46 216.91H480.78Z" fill="#0078BE"/>
<path d="M568.97 201.67L549.13 167.3H509.45L529.29 201.67H568.97Z" fill="#122959"/>
<path d="M509.45 236.03H549.13L568.97 201.67L529.29 201.66L509.45 236.03Z" fill="#0078BE"/>
<path d="M495.39 169.6H494.96L495.18 169.98L495.64 170.77L495.71 170.89H495.85H535.53H535.96L535.74 170.51L535.28 169.72L535.21 169.6H535.07H495.39ZM498.13 174.34H497.7L497.92 174.71L498.38 175.5L498.45 175.63H498.59H538.27H538.7L538.48 175.26L538.03 174.47L537.96 174.34H537.82H498.13ZM500.44 179.09L500.66 179.47L501.12 180.26L501.19 180.39H501.33H541.01H541.44L541.22 180.01L540.76 179.22L540.69 179.1H540.55H500.87H500.44V179.09ZM503.18 183.84L503.4 184.21L503.85 185L503.92 185.13H504.06H543.74H544.17L543.95 184.76L543.5 183.97L543.43 183.84H543.29H503.61H503.18ZM505.92 188.59L506.14 188.96L506.6 189.75L506.67 189.88H506.81H546.49H546.92L546.7 189.51L546.25 188.72L546.18 188.59H546.04H506.36H505.92ZM509.09 193.34H508.66L508.88 193.71L509.34 194.5L509.41 194.63H509.55H549.23H549.66L549.44 194.26L548.98 193.47L548.91 193.34H548.77H509.09ZM511.4 198.09L511.62 198.47L512.08 199.26L512.15 199.38H512.29H551.97H552.4L552.18 199.01L551.73 198.22L551.66 198.09H551.52H511.84H511.4Z" fill="white"/>
<path d="M41.28 134.19L50.12 118.94H89.8L80.96 134.19H41.28Z" fill="#FA5F00"/>
<path d="M129.47 118.94L109.63 84.58H69.95L89.79 118.94H129.47Z" fill="#455478"/>
<path d="M69.95 153.31H109.63L129.47 118.94H89.79L69.95 153.31Z" fill="#FA5F00"/>
<path d="M55.88 86.87H55.45L55.67 87.25L56.13 88.04L56.2 88.16H56.34H96.02H96.45L96.23 87.78L95.78 87L95.71 86.88H95.57L55.88 86.87ZM58.63 91.62H58.2L58.42 91.99L58.88 92.78L58.95 92.91H59.09H98.77H99.2L98.98 92.54L98.53 91.75L98.46 91.62H98.32H58.63ZM60.93 96.37L61.15 96.75L61.61 97.54L61.68 97.67H61.82H101.5H101.93L101.71 97.29L101.25 96.5L101.18 96.38H101.04H61.36H60.93V96.37ZM63.68 101.12L63.9 101.49L64.35 102.28L64.42 102.41H64.56H104.24H104.67L104.45 102.04L104 101.25L103.93 101.12H103.79H64.11H63.68ZM66.42 105.87L66.64 106.24L67.1 107.03L67.17 107.16H67.31H106.99H107.42L107.2 106.79L106.75 106L106.68 105.87H106.54H66.86H66.42ZM69.59 110.61H69.16L69.38 110.98L69.84 111.77L69.91 111.9H70.05H109.73H110.16L109.94 111.53L109.48 110.74L109.41 110.61H109.27H69.59ZM71.9 115.36L72.12 115.74L72.58 116.53L72.65 116.65H72.79H112.47H112.9L112.68 116.28L112.23 115.49L112.16 115.36H112.02H72.34H71.9Z" fill="white"/>
</g>
<defs>
<clipPath id="clip0">
<rect width="765" height="255" fill="white"/>
</clipPath>
</defs>
</svg>
